<svg width="24" height="24" viewBox="0 0 24 24" fill="none" xmlns="http://www.w3.org/2000/svg">
<path d="M7.81755 5.67957C8.39452 5.67957 8.92815 5.72471 9.41573 5.85834C9.90421 5.94773 10.3042 6.12651 10.6591 6.34954C11.0148 6.57286 11.2812 6.88557 11.4581 7.28768C11.636 7.68948 11.7254 8.18157 11.7254 8.71701C11.7254 9.34273 11.5918 9.87817 11.2812 10.28C11.0148 10.6827 10.5706 11.0393 10.0378 11.3075C10.7927 11.5314 11.3697 11.9332 11.7254 12.4687C12.0812 13.0041 12.3024 13.675 12.3024 14.4343C12.3024 15.0601 12.1687 15.5955 11.9466 16.0424C11.7254 16.4894 11.3697 16.8912 10.9697 17.1594C10.535 17.4465 10.0547 17.6577 9.54936 17.7842C9.01663 17.9187 8.48391 18.0081 7.95118 18.0081H2V5.67957H7.81755ZM7.4618 10.6818C7.95028 10.6818 8.35027 10.5481 8.66088 10.3251C8.97149 10.1021 9.10512 9.69939 9.10512 9.2082C9.10512 8.94003 9.05997 8.67186 8.97149 8.49398C8.883 8.31611 8.74937 8.18067 8.57239 8.04704C8.39144 7.94541 8.19683 7.8703 7.99452 7.82401C7.7724 7.77887 7.55119 7.77887 7.28392 7.77887H4.70878V10.6827L7.4618 10.6818ZM7.59543 15.9531C7.86179 15.9531 8.12815 15.9079 8.35027 15.8637C8.57239 15.8185 8.79451 15.73 8.97149 15.5955C9.15171 15.464 9.30293 15.2968 9.41573 15.1043C9.50421 14.8813 9.5936 14.6131 9.5936 14.3007C9.5936 13.675 9.41573 13.228 9.06088 12.9156C8.70512 12.6474 8.21664 12.5138 7.63967 12.5138H4.70878V15.954L7.59543 15.9531ZM16.166 15.9079C16.5211 16.2655 17.0539 16.4442 17.7642 16.4442C18.2527 16.4442 18.6969 16.3106 19.0517 16.0876C19.4075 15.8191 19.6296 15.5509 19.7181 15.2831H21.8942C21.5384 16.3549 21.0057 17.1142 20.296 17.6054C19.5845 18.0524 18.7411 18.3205 17.7199 18.3205C17.0666 18.3215 16.4189 18.2002 15.8102 17.963C15.2623 17.7586 14.7738 17.421 14.389 16.9806C13.9758 16.5701 13.6708 16.0634 13.5015 15.5061C13.2793 14.9255 13.19 14.3007 13.19 13.5856C13.19 12.9156 13.2793 12.2908 13.5015 11.7093C13.7145 11.1491 14.0309 10.6339 14.4342 10.1906C14.8333 9.78878 15.3218 9.43212 15.8545 9.2082C16.4475 8.9701 17.0809 8.84869 17.7199 8.85064C18.4748 8.85064 19.1411 8.98518 19.7181 9.29759C20.296 9.61 20.7393 9.96756 21.0942 10.5039C21.4499 10.9951 21.7172 11.5757 21.8942 12.2014C21.9826 12.8262 22.0269 13.4519 21.9826 14.1662H15.5439C15.5439 14.8813 15.8102 15.5513 16.166 15.9088M18.9633 11.219C18.6527 10.9066 18.1642 10.7278 17.5863 10.7278C17.2475 10.7227 16.9124 10.7992 16.6093 10.9508C16.343 11.0854 16.166 11.2642 15.9881 11.4429C15.8236 11.6149 15.7153 11.8328 15.6775 12.0678C15.6324 12.2917 15.5881 12.4696 15.5881 12.6483H19.5845C19.496 11.9784 19.2739 11.5323 18.9633 11.219ZM15.0554 6.52832H20.0287V7.73462H15.0563L15.0554 6.52832Z" fill="#5E5E5E"/>
</svg>
