<svg width="24" height="24" viewBox="0 0 24 24" fill="none" xmlns="http://www.w3.org/2000/svg">
<path d="M12 2.24231C10.6868 2.24231 9.38642 2.50097 8.17317 3.00351C6.95991 3.50606 5.85752 4.24266 4.92893 5.17124C3.05357 7.04661 2 9.59014 2 12.2423C2 16.6623 4.87 20.4123 8.84 21.7423C9.34 21.8223 9.5 21.5123 9.5 21.2423V19.5523C6.73 20.1523 6.14 18.2123 6.14 18.2123C5.68 17.0523 5.03 16.7423 5.03 16.7423C4.12 16.1223 5.1 16.1423 5.1 16.1423C6.1 16.2123 6.63 17.1723 6.63 17.1723C7.5 18.6923 8.97 18.2423 9.54 18.0023C9.63 17.3523 9.89 16.9123 10.17 16.6623C7.95 16.4123 5.62 15.5523 5.62 11.7423C5.62 10.6323 6 9.74231 6.65 9.03231C6.55 8.78231 6.2 7.74231 6.75 6.39231C6.75 6.39231 7.59 6.12231 9.5 7.41231C10.29 7.19231 11.15 7.08231 12 7.08231C12.85 7.08231 13.71 7.19231 14.5 7.41231C16.41 6.12231 17.25 6.39231 17.25 6.39231C17.8 7.74231 17.45 8.78231 17.35 9.03231C18 9.74231 18.38 10.6323 18.38 11.7423C18.38 15.5623 16.04 16.4023 13.81 16.6523C14.17 16.9623 14.5 17.5723 14.5 18.5023V21.2423C14.5 21.5123 14.66 21.8323 15.17 21.7423C19.14 20.4023 22 16.6623 22 12.2423C22 10.9291 21.7413 9.62873 21.2388 8.41547C20.7362 7.20222 19.9997 6.09983 19.0711 5.17124C18.1425 4.24266 17.0401 3.50606 15.8268 3.00351C14.6136 2.50097 13.3132 2.24231 12 2.24231Z" fill="#5E5E5E"/>
</svg>
